#!OML:ASF I:\Actors\actors\Patient Classification 1\Patient 1\Session 1\Subject1.ASF
:FULLY-SPECIFIED
:DEGREES
705
root 0.870039 17.5217 8.6686 7.31465 -0.448043 -8.06828
lowerback -1.22786 0.33588 6.54134
upperback -10.661 0.92971 1.95956
thorax -10.6514 -0.0307394 -1.61242
lowerneck -14.2955 -3.65488 -0.848734
upperneck 28.0338 -5.74742 2.16666
head 11.5964 -2.43159 0.129477
rclavicle -8.94531e-015 4.77083e-015
rhumerus -16.434 31.2559 -95.2645
rradius 126.778
rwrist 9.73881
rhand -14.4865 312.123
rfingers 7.12502
rthumb 11.6599 -77.5321
lclavicle -8.94531e-015 4.77083e-015
lhumerus -22.4358 -29.7081 100.697
lradius 124.044
lwrist 4.27243
lhand -37.3053 -23.1176
lfingers 7.12502
lthumb -10.3692 366.607
rfemur -5.39913 22.6552 25.0978
rtibia 9.27009
rfoot -13.8219 -19.2905
rtoes -0.343813
lfemur 3.63691 -35.5846 -10.985
ltibia -2.42453
lfoot -11.6459 42.998
ltoes -0.841962
706
root 0.875424 17.5111 8.66144 7.30844 -0.51451 -8.12593
lowerback -1.36118 0.282302 6.69225
upperback -10.4757 0.844948 2.00825
thorax -10.3668 -0.072323 -1.63897
lowerneck -14.4789 -3.5078 -0.615377
upperneck 27.6521 -5.48639 1.85704
head 11.4625 -2.33176 0.0130174
rclavicle -8.54774e-015 3.1408e-014
rhumerus -17.4091 33.1681 -96.9702
rradius 125.787
rwrist 9.07017
rhand -14.7309 312.258
rfingers 7.12502
rthumb 11.4242 -77.4108
lclavicle -8.54774e-015 3.1408e-014
lhumerus -24.05 -31.1825 102.611
lradius 123.077
lwrist 5.10699
lhand -37.5337 -21.5208
lfingers 7.12502
lthumb -10.5895 368.192
rfemur -5.50599 22.5431 25.1073
rtibia 9.40509
rfoot -13.857 -19.0736
rtoes -0.541664
lfemur 3.56004 -35.4209 -10.9096
ltibia -2.33416
lfoot -11.6854 42.8846
ltoes -0.733357
707
root 0.885606 17.492 8.64269 7.48482 -0.816436 -8.1785
lowerback -1.5751 0.352975 6.92174
upperback -10.326 0.917411 1.97422
thorax -10.0628 -0.0480085 -1.80851
lowerneck -14.8023 -3.41696 -0.574714
upperneck 27.4684 -5.38445 1.94644
head 11.4575 -2.2684 0.0481915
rclavicle -2.80286e-014 6.42074e-014
rhumerus -18.1476 36.1921 -99.2619
rradius 124.741
rwrist 7.46137
rhand -14.3138 312.934
rfingers 7.12502
rthumb 11.8265 -76.7119
lclavicle -2.80286e-014 6.42074e-014
lhumerus -25.3554 -34.5268 104.924
lradius 120.892
lwrist 4.31456
lhand -37.523 -25.7136
lfingers 7.12502
lthumb -10.5792 364
rfemur -6.0779 22.196 24.924
rtibia 9.76646
rfoot -13.7915 -18.4386
rtoes -1.22933
lfemur 3.19128 -35.0551 -10.7181
ltibia -2.15497
lfoot -11.8272 42.8178
ltoes -0.489262
708
root 0.875259 17.4945 8.63968 6.96079 -0.547419 -8.03753
lowerback -1.19068 0.187744 6.7014
upperback -10.0897 0.705297 1.93958
thorax -10.037 -0.129619 -1.71314
lowerneck -15.0966 -3.3939 -0.634792
upperneck 27.4439 -5.38946 2.13346
head 11.516 -2.24945 0.120342
rclavicle 2.98177e-015 5.56597e-015
rhumerus -19.1242 40.1529 -101.724
rradius 123.585
rwrist 8.06482
rhand -15.0411 311.59
rfingers 7.12502
rthumb 11.1251 -78.0952
lclavicle 2.98177e-015 5.56597e-015
lhumerus -26.3668 -38.7276 107.05
lradius 118.877
lwrist 4.0171
lhand -37.3997 -26.2332
lfingers 7.12502
lthumb -10.4602 363.487
rfemur -5.31392 22.4418 25.1214
rtibia 9.60651
rfoot -13.8451 -18.9965
rtoes -1.13326
lfemur 3.64473 -34.6159 -11
ltibia -2.16103
lfoot -11.3939 42.0992
ltoes -1.40552
709
root 0.872507 17.4923 8.6272 6.76016 -0.555014 -7.99364
lowerback -0.849593 0.168143 6.64358
upperback -9.99897 0.701984 1.93674
thorax -10.1372 -0.127592 -1.686
lowerneck -15.4476 -3.41369 -0.694035
upperneck 27.47 -5.41842 2.18546
head 11.6011 -2.25671 0.138118
rclavicle 4.87022e-015 -1.17283e-014
rhumerus -19.8697 43.5954 -103.557
rradius 122.436
rwrist 7.4474
rhand -14.8898 311.211
rfingers 7.12502
rthumb 11.2711 -78.4663
lclavicle 4.87022e-015 -1.17283e-014
lhumerus -27.0546 -43.2429 108.603
lradius 116.964
lwrist 3.73349
lhand -36.873 -26.1449
lfingers 7.12502
lthumb -9.95216 363.6
rfemur -5.19132 22.4898 25.1634
rtibia 9.75054
rfoot -13.9415 -19.0445
rtoes -1.0352
lfemur 3.77098 -34.3622 -11.0887
ltibia -2.10132
lfoot -11.2832 41.8345
ltoes -1.61848
